<?xml version="1.0" encoding="UTF-8" standalone="no"?>
<!-- Created with Inkscape (http://www.inkscape.org/) -->

<svg
   width="63.618851mm"
   height="63.536987mm"
   viewBox="0 0 63.618851 63.536987"
   version="1.1"
   id="svg5"
   inkscape:version="1.1.1 (c3084ef, 2021-09-22)"
   sodipodi:docname="ALVA LOGO.svg"
   xmlns:inkscape="http://www.inkscape.org/namespaces/inkscape"
   xmlns:sodipodi="http://sodipodi.sourceforge.net/DTD/sodipodi-0.dtd"
   xmlns="http://www.w3.org/2000/svg"
   xmlns:svg="http://www.w3.org/2000/svg">
  <sodipodi:namedview
     id="namedview7"
     pagecolor="#ffffff"
     bordercolor="#eeeeee"
     borderopacity="1"
     inkscape:pageshadow="0"
     inkscape:pageopacity="0"
     inkscape:pagecheckerboard="0"
     inkscape:document-units="mm"
     showgrid="false"
     inkscape:zoom="0.81617202"
     inkscape:cx="1358.1696"
     inkscape:cy="1067.177"
     inkscape:window-width="1440"
     inkscape:window-height="900"
     inkscape:window-x="1680"
     inkscape:window-y="64"
     inkscape:window-maximized="0"
     inkscape:current-layer="layer2"
     inkscape:showpageshadow="0"
     inkscape:deskcolor="#d1d1d1" />
  <defs
     id="defs2" />
  <g
     inkscape:groupmode="layer"
     id="layer2"
     inkscape:label="logo"
     style="opacity:1"
     transform="translate(-16.942851,-221.26327)">
    <path
       style="fill:#003380;fill-opacity:1;stroke-width:8.24307"
       d="m 48.489941,254.62506 c -0.11998,0.002 -0.23799,0.007 -0.3545,0.0134 -1.86125,0.10644 -3.61277,0.80988 -5.96501,2.30632 l -0.01,0.006 c -6.64531,4.25437 -13.82533,3.76069 -19.60191,1.05265 -1.96439,-0.9209 -3.82697,-2.04982 -5.61567,-3.29282 a 31.879548,31.768555 0 0 0 31.81666,30.08963 31.879548,31.768555 0 0 0 31.80219,-29.71343 c -0.97968,0.61041 -1.99902,1.20904 -3.05563,1.76992 -5.84844,3.10458 -13.85468,4.69957 -21.84156,-0.0687 -3.18744,-1.67116 -5.384,-2.19188 -7.17475,-2.16317 z"
       id="path5558"
       inkscape:export-filename="../Documents/projects/alva-cleaning-website/src/assets/logo.svg"
       inkscape:export-xdpi="204.6808"
       inkscape:export-ydpi="204.6808" />
    <path
       style="fill:#5599ff;fill-opacity:1;stroke-width:8.24307"
       d="m 48.759691,221.26327 a 31.879548,31.768555 0 0 0 -30.90664,24.05331 c 2.8138,2.27641 5.53803,4.24166 8.1008,5.44308 4.1859,1.96234 7.40258,2.33193 11.90005,-0.55087 l 0.004,-0.002 0.006,-0.004 c 2.9488,-1.87759 6.14332,-3.34272 9.81645,-3.55276 3.67312,-0.21004 7.51712,0.85023 11.75794,3.08199 l 0.10903,0.0589 0.10594,0.0641 c 5.62927,3.42486 9.51024,2.37421 14.10353,-0.0641 2.04982,-1.08812 4.02757,-2.52812 6.04149,-3.98322 a 31.879548,31.768555 0 0 0 -31.03841,-24.54424 z"
       id="path5560" />
  </g>
</svg>
